<?xml version="1.0" encoding="UTF-8" standalone="no"?>
<!-- Created with Inkscape (http://www.inkscape.org/) -->

<svg
   xmlns:dc="http://purl.org/dc/elements/1.1/"
   xmlns:cc="http://creativecommons.org/ns#"
   xmlns:rdf="http://www.w3.org/1999/02/22-rdf-syntax-ns#"
   xmlns:svg="http://www.w3.org/2000/svg"
   xmlns="http://www.w3.org/2000/svg"
   version="1.1"
   width="169.5582"
   height="183.50694"
   id="svg4823">
  <defs
     id="defs4825" />
  <metadata
     id="metadata4828">
    <rdf:RDF>
      <cc:Work
         rdf:about="">
        <dc:format>image/svg+xml</dc:format>
        <dc:type
           rdf:resource="http://purl.org/dc/dcmitype/StillImage" />
        <dc:title></dc:title>
      </cc:Work>
    </rdf:RDF>
  </metadata>
  <g
     transform="translate(-298.07789,-412.03728)"
     id="layer1">
    <path
       d="m 368.72028,412.21127 c -2.12337,1.30326 -1.54436,3.0011 -2.56262,3.70694 -1.49497,3.43714 -3.91294,6.98121 -5.03109,10.33372 0.0722,4.9563 1.65951,8.56488 4.43242,12.49429 0.23532,-1.48515 2.03303,3.42657 0.2634,6.97601 -1.17579,2.66893 0.62858,5.66379 -0.74204,8.43447 -0.26872,4.37151 -2.34299,8.29715 -2.29945,12.72678 -3.82028,5.86067 -12.73712,6.5632 -18.77502,10.1921 -10.63928,6.27439 -21.72454,12.66299 -28.98726,22.92781 -7.99912,7.08355 -12.9314,16.25232 -16.21146,26.24375 -0.2724,4.61672 -1.08127,7.84119 -0.55535,5.76691 -0.0326,2.31079 -0.22277,-1.03225 -0.0614,1.08143 0.18548,6.04969 0.98472,14.19118 3.23213,20.64151 3.67249,10.44413 12.79992,17.72811 20.40768,25.31168 8.28186,4.89226 16.4413,9.86096 25.8947,12.25522 4.38792,1.8341 9.68052,2.57 12.80291,3.99184 2.51729,0.83354 1.39281,-0.58197 2.63039,-1.99395 -0.6683,-1.4078 -0.46831,-3.39565 -1.09545,-6.17367 1.08694,-2.92951 0.48822,-5.4613 0.58396,-8.56122 -0.82576,-2.47839 0.83291,-6.35606 -0.26802,-8.06307 -0.54959,1.64347 1.18278,-1.59096 -0.10814,-0.11882 0.31029,-1.01268 -0.60877,0.0622 -1.35014,-3.53586 -1.76847,-5.65321 -5.42976,-10.49207 -8.73678,-15.26355 -1.82935,-4.24048 -4.45712,-8.06226 -5.67935,-12.55959 -2.78989,-2.88818 -1.80908,-5.35961 1.13807,-7.6137 8.3348,-8.67615 14.48995,-19.11397 22.67991,-27.91484 4.55805,-5.69454 8.7165,-11.71782 13.83714,-16.938 3.87668,6.06673 8.44051,11.75117 10.94941,18.56315 3.67104,6.35823 8.25483,12.20893 10.66258,19.20535 2.38366,3.8782 4.67557,7.81041 6.92073,11.77016 -3.1264,4.7914 -4.55956,10.43267 -7.96524,15.10607 -3.21766,3.48423 -6.20971,7.33914 -7.28073,12.10529 -1.80853,1.94631 -4.35168,4.13753 -2.5535,4.2094 -2.03249,0.78927 -2.39171,1.2538 -1.17067,0.98934 -0.0104,2.7683 1.53076,5.39109 -0.21357,7.90551 -0.61088,3.14913 1.88262,6.47252 -0.008,9.28787 1.58608,2.39206 -1.24446,4.87455 0.42788,5.9782 -1.16251,1.21087 4.01032,-0.33797 2.93757,0.2882 6.80674,-0.051 15.07113,-1.50777 21.75334,-5.02221 11.03781,-2.19937 19.68261,-8.9733 28.53125,-15.27927 7.85895,-8.50455 15.37756,-18.00447 17.75952,-29.62946 1.76783,-5.11595 1.67783,-7.68813 0.89483,-7.87924 1.81532,0.61014 2.55442,0.22538 0.94106,-0.0519 -1.72205,-3.96468 -1.86784,-13.85989 -4.27815,-19.7942 -2.34562,-10.55437 -10.63377,-18.4403 -18.28955,-25.42637 -5.83569,-8.10813 -16.01498,-9.86222 -23.3232,-16.08956 -4.57489,-3.56983 -15.47064,-3.66172 -15.3273,-10.34906 -1.13154,-4.46883 0.51306,-8.96603 0.33265,-13.52996 -0.79448,-2.87662 0.41698,-5.75027 0.0888,-8.56567 -0.60753,-3.53515 2.34356,-4.40156 4.61829,-5.86913 2.56552,-2.81091 4.70217,-4.96182 3.65444,-8.67881 0.75739,-4.87339 -3.0156,-9.95809 -7.56395,-10.44944 -3.48339,-1.17869 -7.52479,0.12564 -6.24135,-0.18482 -0.83588,0.33159 -5.1e-4,0.86499 -0.96026,2.68711 1.09156,3.98149 -2.06415,3.75765 -2.41041,7.34041 -3.28932,2.89015 -2.80968,5.28891 -2.57144,4.30479 -0.37448,-1.59778 0.86775,3.41425 0.70724,2.96403 1.6137,5.40732 3.87299,2.78257 3.19051,5.93759 -1.35998,3.81581 0.15029,7.82902 0.19858,11.58948 -1.65496,3.15774 0.90978,6.3274 -0.54667,9.44085 -0.73228,2.93005 0.37173,6.09338 0.41062,9.07879 -0.97418,1.81575 -1.38965,2.89132 0.36537,2.83217 0.93542,0.7439 4.9629,1.51682 9.06477,3.62495 9.16967,2.72252 16.58983,9.28776 24.77799,14.21245 8.70246,6.45212 17.39168,14.20393 21.74285,24.38103 2.55939,8.64986 7.47521,17.79943 3.21425,26.83883 -2.65081,12.40754 -12.26163,21.60844 -20.95511,30.1848 -7.46335,4.47683 -15.16228,9.18771 -23.6422,10.6808 -3.74117,2.60554 -14.53958,5.5395 -11.6512,-1.97437 -0.75889,-2.58093 -0.74063,-5.47993 0.6101,-7.88504 -2.28277,-2.76519 1.80721,-5.24616 2.67196,-7.88745 3.85103,-6.24545 8.56849,-12.02621 12.04448,-18.46199 0.53057,-2.98908 2.62948,-5.13976 4.37823,-7.48385 -0.21629,0.58887 1.18165,-2.12069 0.77296,-2.09455 -1.65698,0.86355 -0.6111,-2.01928 -3.12495,-4.33418 -7.09251,-10.03822 -11.70118,-21.59884 -18.3915,-31.90185 -3.23075,-7.71061 -7.53153,-14.90219 -12.43284,-21.66131 -0.51834,-0.25615 -0.17939,-3.14058 -2.40074,-3.90807 0.56159,-1.2455 -2.64615,3.05014 -2.56865,2.64287 -0.78146,3.64612 -5.29782,5.25094 -7.19821,8.4172 -7.3378,11.53307 -16.86635,21.39691 -25.30385,32.09755 -4.65231,5.42536 -10.04368,10.17334 -14.11647,16.10394 0.54286,1.95137 -1.95663,0.55029 -0.81423,2.67105 1.30818,0.41583 -0.43086,0.33223 1.73217,3.74944 2.93841,4.33542 5.06025,9.04689 7.30772,13.74405 1.80855,4.27019 4.85175,7.79646 7.10317,11.75478 1.17686,3.15585 3.21902,6.21567 3.39429,9.5185 0.8232,3.35979 -0.84677,7.22628 0.38913,10.7406 -4.09206,3.0633 -15.48795,-4.16203 -20.96086,-7.39843 -7.94891,-3.82614 -16.31008,-10.33148 -21.14272,-18.17658 -5.619,-7.42809 -8.12253,-16.37927 -8.36657,-25.60574 1.98718,-10.19576 6.4052,-20.8702 14.16772,-28.06382 7.63793,-7.7066 15.49878,-14.71728 25.23226,-19.69318 7.53096,-4.11855 15.12346,-8.32246 22.83085,-11.88489 1.58459,-0.0724 1.28238,-2.36797 2.15025,-1.28536 0.23107,-0.44826 1.26476,-0.95095 0.65037,-4.43479 0.31867,-3.17489 0.90039,-6.44623 1.20441,-9.63846 1.38543,-3.84781 1.95489,-7.8929 1.92099,-11.92298 1.79795,-3.51361 -0.79333,-7.27548 2.53657,-8.54056 1.16949,-1.91607 5.85161,-7.52613 4.52607,-11.6072 -0.36303,-4.37689 -4.40404,-7.68526 -7.38533,-10.27805 0.62596,-0.30469 -2.93877,-3.20985 -2.91254,-2.75423 -0.72585,-0.77358 -0.58365,-1.77123 -1.96247,-1.79275 m 38.85941,11.10867 c 0.42299,3.97836 1.29985,2.48415 -1.34853,5.30193 -0.93342,0.18508 -3.24952,4.4612 -2.92595,1.60066 -0.96517,0.4454 3.06748,-6.21096 3.53067,-5.092 -1.84412,-2.96029 0.77651,1.10903 0.1798,-2.26362 m -36.53067,1.11187 c 4.15142,3.26706 3.78281,5.17404 0.65272,9.17947 -0.94213,-4.42484 -2.76825,-3.99583 -0.0544,-8.72571 l 0.32028,0.094 0.10377,-0.14563"
       id="path3350-6"
       style="font-size:medium;font-style:normal;font-variant:normal;font-weight:normal;font-stretch:normal;text-indent:0;text-align:start;text-decoration:none;line-height:normal;letter-spacing:normal;word-spacing:normal;text-transform:none;direction:ltr;block-progression:tb;writing-mode:lr-tb;text-anchor:start;baseline-shift:baseline;color:#333333;fill:#333333;fill-opacity:1;stroke:none;stroke-width:80;marker:none;visibility:visible;display:inline;overflow:visible;enable-background:accumulate;font-family:Sans;-inkscape-font-specification:Sans" />
  </g>
</svg>
